# xmcd CD database file
#
# Track frame offsets:
#	150
#	17213
#	33210
#	49435
#	61322
#	74334
#	86273
#	95238
#	112784
#	128294
#	143454
#	164097
#	174657
#	191539
#	199910
#	213856
#	225994
#	246592
#	257950
#
# Disc length: 3607 seconds
#
# Revision: 1
# Processed by: cddbd v1.4PL0 Copyright (c) Steve Scherf et al.
# Submitted via: CDex 1.50beta10
#
DISCID=0a0e1513
DTITLE=Various Artist - Prvni velky cesky country zpevnik P - S
DYEAR=2002
DGENRE=Country
TTITLE0=Drobek - Poveste ho vejs
TTITLE1=J.Stahlavsky - Posledni verejne obeseni v Zapadni Virginii
TTITLE2=Drobek - Posledni kovboj
TTITLE3=Drobek - Rovnou jo tady rovnou
TTITLE4=J.Zoch,Drobek - Rosa na kolejich
TTITLE5=Drobek - Rad se brouzdam rosou
TTITLE6=Montgomery - Ruty suty
TTITLE7=Drobek - Ruze z Texasu
TTITLE8=Montgomery - Rekni kde ty kytky jsou
TTITLE9=Josef Zoch,Vladimir Hrubec - Sbohem kapitane
TTITLE10=Drobek - Staryho psa novym kouskum nenaucis
TTITLE11=P.Paskova - Skala
TTITLE12=Drobek - Sbohem lasko
TTITLE13=Brycka - Socha svobody
TTITLE14=Drobek - Sundej z hodin zavazi
TTITLE15=J.Cerny - Severni vitr
TTITLE16=Josef Zoch - Shane
TTITLE17=A-band - Seno a staj
TTITLE18=Drobek - Stary muz
EXTD=YEAR: 2002
EXTT0=
EXTT1=
EXTT2=
EXTT3=
EXTT4=
EXTT5=
EXTT6=
EXTT7=
EXTT8=
EXTT9=
EXTT10=
EXTT11=
EXTT12=
EXTT13=
EXTT14=
EXTT15=
EXTT16=
EXTT17=
EXTT18=
PLAYORDER=
